<svg width="249" height="30" viewBox="0 0 249 30" fill="none" xmlns="http://www.w3.org/2000/svg">
<path d="M15.1987 28.3988V15.1992" stroke="#F7F3EB" stroke-width="2.5" stroke-linecap="square" stroke-linejoin="round"/>
<path d="M8.125 22.2746L15.1998 15.1998L8.125 8.125" stroke="#F7F3EB" stroke-width="2.5" stroke-linecap="square" stroke-linejoin="round"/>
<path d="M2 15.1992L15.1996 15.1992" stroke="#F7F3EB" stroke-width="2.5" stroke-linecap="square" stroke-linejoin="round"/>
<path d="M22.2735 8.125L15.1987 15.1998L22.2735 22.2746" stroke="#F7F3EB" stroke-width="2.5" stroke-linecap="square" stroke-linejoin="round"/>
<path d="M28.3983 15.1992H15.1987" stroke="#F7F3EB" stroke-width="2.5" stroke-linecap="square" stroke-linejoin="round"/>
<path d="M15.1987 2L15.1987 12.9997" stroke="#F7F3EB" stroke-width="2.5" stroke-linecap="square" stroke-linejoin="round"/>
<path d="M49.7344 7.91531L55.2304 21.5953L53.6224 21.2833L58.7344 7.91531H62.0464L54.2224 26.2033L46.3984 7.91531H49.7344Z" fill="#F7F3EB"/>
<path d="M67.7245 7.91531H70.5325V25.3873H67.7245V7.91531Z" fill="#F7F3EB"/>
<path d="M86.9097 11.4673C86.2857 11.1473 85.6217 10.8753 84.9177 10.6513C84.2137 10.4113 83.5417 10.2913 82.9017 10.2913C82.0377 10.2913 81.3497 10.4833 80.8377 10.8673C80.3417 11.2513 80.0937 11.7793 80.0937 12.4513C80.0937 12.9313 80.2697 13.3553 80.6217 13.7233C80.9737 14.0753 81.4217 14.3873 81.9657 14.6593C82.5097 14.9153 83.0857 15.1633 83.6937 15.4033C84.2217 15.5953 84.7417 15.8273 85.2537 16.0993C85.7817 16.3553 86.2537 16.6753 86.6697 17.0593C87.0857 17.4433 87.4137 17.9233 87.6537 18.4993C87.9097 19.0593 88.0377 19.7553 88.0377 20.5873C88.0377 21.4993 87.8057 22.3393 87.3417 23.1073C86.8777 23.8593 86.2137 24.4593 85.3497 24.9073C84.4857 25.3553 83.4297 25.5793 82.1817 25.5793C81.4617 25.5793 80.7497 25.4993 80.0457 25.3393C79.3577 25.1793 78.7017 24.9633 78.0777 24.6913C77.4537 24.4033 76.8777 24.0833 76.3497 23.7313L77.5977 21.5473C77.9817 21.8353 78.4217 22.0993 78.9177 22.3393C79.4137 22.5793 79.9257 22.7713 80.4537 22.9153C80.9817 23.0433 81.4777 23.1073 81.9417 23.1073C82.4377 23.1073 82.9257 23.0273 83.4057 22.8673C83.9017 22.7073 84.3097 22.4433 84.6297 22.0753C84.9657 21.7073 85.1337 21.2193 85.1337 20.6113C85.1337 20.1153 84.9897 19.6913 84.7017 19.3393C84.4137 18.9873 84.0377 18.6833 83.5737 18.4273C83.1257 18.1553 82.6297 17.9153 82.0857 17.7073C81.5417 17.4993 80.9817 17.2673 80.4057 17.0113C79.8457 16.7553 79.3257 16.4433 78.8457 16.0753C78.3657 15.6913 77.9737 15.2273 77.6697 14.6833C77.3657 14.1393 77.2137 13.4673 77.2137 12.6673C77.2137 11.7073 77.4377 10.8753 77.8857 10.1713C78.3337 9.46731 78.9497 8.90731 79.7337 8.49131C80.5337 8.07531 81.4537 7.85131 82.4937 7.81931C83.7257 7.81931 84.7737 7.97131 85.6377 8.27531C86.5177 8.56331 87.2937 8.91531 87.9657 9.33131L86.9097 11.4673Z" fill="#F7F3EB"/>
<path d="M94.1104 7.91531H96.9184V25.3873H94.1104V7.91531Z" fill="#F7F3EB"/>
<path d="M102.88 7.91531H114.568V10.6033H110.056V25.3873H107.272V10.6033H102.88V7.91531Z" fill="#F7F3EB"/>
<path d="M145.967 26.0113L132.551 13.0033L133.367 13.3393L133.439 25.3873H130.607V7.31531H130.727L143.951 20.3233L143.303 20.1313L143.255 7.91531H146.039V26.0113H145.967Z" fill="#F7F3EB"/>
<path d="M152.177 16.6753C152.177 15.4593 152.409 14.3153 152.873 13.2433C153.337 12.1713 153.977 11.2193 154.793 10.3873C155.609 9.55531 156.553 8.90731 157.625 8.44331C158.713 7.96331 159.873 7.72331 161.105 7.72331C162.321 7.72331 163.465 7.96331 164.537 8.44331C165.625 8.90731 166.577 9.55531 167.393 10.3873C168.225 11.2193 168.873 12.1713 169.337 13.2433C169.817 14.3153 170.057 15.4593 170.057 16.6753C170.057 17.9073 169.817 19.0593 169.337 20.1313C168.873 21.2033 168.225 22.1553 167.393 22.9873C166.577 23.8033 165.625 24.4433 164.537 24.9073C163.465 25.3553 162.321 25.5793 161.105 25.5793C159.857 25.5793 158.697 25.3553 157.625 24.9073C156.553 24.4433 155.609 23.8113 154.793 23.0113C153.977 22.1953 153.337 21.2513 152.873 20.1793C152.409 19.0913 152.177 17.9233 152.177 16.6753ZM155.057 16.6753C155.057 17.5393 155.209 18.3473 155.513 19.0993C155.833 19.8513 156.273 20.5153 156.833 21.0913C157.393 21.6513 158.041 22.0913 158.777 22.4113C159.513 22.7313 160.313 22.8913 161.177 22.8913C162.009 22.8913 162.785 22.7313 163.505 22.4113C164.241 22.0913 164.881 21.6513 165.425 21.0913C165.969 20.5153 166.393 19.8513 166.697 19.0993C167.017 18.3473 167.177 17.5393 167.177 16.6753C167.177 15.7953 167.017 14.9793 166.697 14.2273C166.377 13.4753 165.945 12.8113 165.401 12.2353C164.857 11.6593 164.217 11.2113 163.481 10.8913C162.745 10.5713 161.953 10.4113 161.105 10.4113C160.257 10.4113 159.465 10.5713 158.729 10.8913C157.993 11.2113 157.345 11.6593 156.785 12.2353C156.241 12.8113 155.817 13.4833 155.513 14.2513C155.209 15.0033 155.057 15.8113 155.057 16.6753Z" fill="#F7F3EB"/>
<path d="M181.109 7.91531C182.069 7.91531 182.949 8.04331 183.749 8.29931C184.549 8.53931 185.229 8.89931 185.789 9.37931C186.349 9.85931 186.781 10.4513 187.085 11.1553C187.405 11.8433 187.565 12.6353 187.565 13.5313C187.565 14.2193 187.461 14.9073 187.253 15.5953C187.045 16.2833 186.701 16.9073 186.221 17.4673C185.757 18.0273 185.141 18.4753 184.373 18.8113C183.605 19.1473 182.653 19.3153 181.517 19.3153H178.997V25.3873H176.189V7.91531H181.109ZM181.493 16.6273C182.117 16.6273 182.637 16.5313 183.053 16.3393C183.469 16.1313 183.789 15.8753 184.013 15.5713C184.253 15.2673 184.421 14.9473 184.517 14.6113C184.629 14.2593 184.685 13.9313 184.685 13.6273C184.685 13.3393 184.637 13.0273 184.541 12.6913C184.445 12.3393 184.285 12.0113 184.061 11.7073C183.837 11.3873 183.517 11.1233 183.101 10.9153C182.701 10.7073 182.197 10.6033 181.589 10.6033H178.997V16.6273H181.493ZM184.517 18.2833L188.981 25.3873H185.741L181.181 18.3553L184.517 18.2833Z" fill="#F7F3EB"/>
<path d="M191.959 8.01131H195.223L199.543 20.3953L199.087 20.2033L202.447 11.5873L203.743 15.3793L198.943 26.2033L191.959 8.01131ZM200.527 8.01131H203.287L208.087 20.1313L207.535 20.0353L211.519 8.01131H214.519L207.703 26.1553L200.527 8.01131Z" fill="#F7F3EB"/>
<path d="M216.102 25.3873L223.83 7.19531H223.998L231.726 25.3873H228.51L223.062 11.5873L225.078 10.2193L218.862 25.3873H216.102ZM220.95 18.9073H226.926L227.886 21.2833H220.11L220.95 18.9073Z" fill="#F7F3EB"/>
<path d="M239.442 19.7233L232.986 7.91531H236.418L241.338 17.3233L240.498 17.3713L245.346 7.91531H248.778L242.226 19.7233V25.3873H239.442V19.7233Z" fill="#F7F3EB"/>
</svg>
