<svg width="571" height="340" viewBox="0 0 571 340" fill="none" xmlns="http://www.w3.org/2000/svg">
<path d="M345.055 4.68555V117.58M316.41 31.645L345.055 3L373.7 31.645M316.41 55.2348L345.055 26.5898L373.699 55.2348M316.41 78.8265L345.055 50.1816L373.7 78.8265M316.41 102.414L345.055 73.7695L373.699 102.414M289.449 127.492V340M235.529 178.24L289.449 124.32L343.369 178.24M235.529 222.645L289.449 168.725L343.369 222.645M235.529 267.047L289.449 213.127L343.369 267.047M235.529 311.455L289.449 257.535L343.369 311.455M147.91 19.0564V191.719M104.1 60.2904L147.91 16.4805L191.72 60.2904M104.1 96.3705L147.91 52.5605L191.719 96.3705M104.1 132.447L147.91 88.6367L191.719 132.447M104.1 168.527L147.91 124.717L191.719 168.527M3 215.111H80.5099L41.755 151.279L3 215.111ZM3 256.143H80.5099L41.755 187.752L3 256.143ZM3 297.182H80.5099L41.755 228.791L3 297.182ZM396.451 245.683H568.321L482.386 159.748L396.451 245.683ZM413.638 199.853H551.134L482.386 108.189L413.638 199.853ZM430.825 148.291H533.947L482.386 50.8984L430.825 148.291Z" stroke="#F7F3EB" stroke-width="4.44321" stroke-linejoin="round"/>
</svg>
